<svg width="1300" height="358" viewBox="0 0 1300 358" fill="none" xmlns="http://www.w3.org/2000/svg">
<path d="M482.812 173.804L496.044 203.153C496.839 204.944 498.73 206.934 502.908 206.934C507.982 206.934 507.982 204.347 507.982 203.153C507.92 202.2 507.719 201.262 507.385 200.367L444.509 63.4729C443.315 60.7867 441.326 58.2001 437.048 58.2001C432.272 58.2001 431.078 60.1898 429.387 63.8708L366.611 200.367C366.611 200.367 366.014 201.561 366.014 202.357C366.014 204.745 367.605 206.934 371.088 206.934C376.062 206.934 377.057 205.143 378.052 203.153L391.184 173.804H482.812ZM437.048 72.3273L477.837 163.06H396.158L437.048 72.3273ZM646.866 159.279C646.866 180.37 627.964 198.079 596.725 198.079C563.297 198.079 547.976 180.37 547.976 159.279V65.8606C547.976 61.5826 546.384 59.3939 541.808 59.3939C537.729 59.3939 536.137 62.876 536.137 65.8606V159.379C536.137 185.444 557.029 208.824 596.725 208.824C635.027 208.824 657.71 185.444 657.71 159.279V65.8606C657.71 62.279 656.317 59.3939 652.139 59.3939C647.065 59.3939 646.866 62.876 646.866 65.8606V159.279ZM753.417 206.934C808.732 206.934 827.237 172.71 827.237 131.522C827.237 78.2965 794.008 59.3939 748.144 59.3939H702.977C702.447 59.3652 701.917 59.4485 701.421 59.6383C700.925 59.8281 700.475 60.1203 700.099 60.4957C699.724 60.8711 699.432 61.3214 699.242 61.8172C699.052 62.313 698.969 62.8433 698.998 63.3734V202.954C698.998 205.342 700.689 206.934 702.977 206.934H753.417ZM710.737 195.99V70.3375H748.144C787.641 70.3375 815.597 85.2606 815.597 131.622C815.597 167.636 800.077 196.189 753.417 196.189L710.737 195.99ZM876.383 63.9703C876.383 63.9703 876.383 59.4934 870.414 59.4934C864.544 59.4934 864.544 63.9703 864.544 63.9703V202.457C864.544 202.457 864.544 207.033 870.514 207.033C876.383 207.033 876.383 202.457 876.383 202.457V63.9703ZM988.107 198.179C955.078 198.179 927.52 172.014 927.52 133.611C927.52 94.7119 954.68 68.3478 988.107 68.3478C1021.54 68.3478 1048.7 94.7119 1048.7 133.611C1048.7 172.014 1021.14 198.179 988.008 198.179H988.107ZM988.107 208.923C1028 208.923 1060.43 178.48 1060.43 133.611C1060.43 88.2452 1026.01 57.4042 988.107 57.4042C950.103 57.4042 915.681 88.2452 915.681 133.512C915.681 178.281 948.213 208.923 988.107 208.923ZM1103.91 59.3939C1100.43 59.3939 1099.83 62.478 1099.83 65.6616V202.357C1099.83 205.74 1101.03 206.934 1104.51 206.934C1108.69 206.934 1110.58 205.74 1110.58 202.357V82.1765L1210.06 202.954C1211.95 205.143 1212.95 206.934 1215.83 206.934C1219.02 206.934 1219.81 205.143 1219.81 200.168V63.8708C1219.81 61.5826 1219.42 59.3939 1214.64 59.3939C1209.57 59.3939 1208.97 61.5826 1208.97 63.8708V184.449L1109.88 62.876C1107.09 59.5929 1105.5 59.3939 1103.91 59.3939Z" fill="url(#paint0_linear_101_148)"/>
<path d="M415.359 229.517C415.359 229.517 417.648 229.517 417.648 226.831C417.648 224.045 415.359 224.045 415.359 224.045H363.129C363.129 224.045 360.84 224.045 360.84 226.831C360.84 229.617 363.129 229.617 363.129 229.617H386.21V297.765C386.21 297.765 386.21 300.153 389.194 300.153C392.278 300.153 392.278 297.765 392.278 297.765V229.617L415.359 229.517ZM439.435 294.582V272.894H473.161C473.161 272.894 475.45 272.695 475.45 270.108C475.45 267.521 473.161 267.322 473.161 267.322H439.336V229.716H479.131C479.131 229.716 481.419 229.418 481.419 226.731C481.419 224.244 479.031 224.045 479.031 224.045H435.456C434.262 224.045 433.466 224.841 433.466 226.035V298.064C433.466 299.357 434.262 300.054 435.456 300.054H482.115C482.115 300.054 484.403 299.954 484.403 297.367C484.403 294.781 482.115 294.582 482.115 294.582H439.435ZM556.333 242.251C556.333 246.231 555.338 246.43 555.338 247.524C555.338 248.917 556.333 249.713 557.925 249.713C560.213 249.713 562.302 246.032 562.302 241.456C562.302 230.81 551.955 223.05 537.231 223.05C518.229 223.05 499.327 235.088 499.327 263.741C499.327 288.314 516.538 301.148 537.331 301.148C542.251 301.213 547.13 300.246 551.654 298.31C556.178 296.373 560.246 293.511 563.595 289.906C564.192 289.209 565.386 287.518 565.386 286.225C565.386 285.916 565.324 285.61 565.203 285.326C565.082 285.041 564.904 284.784 564.681 284.571C564.458 284.357 564.194 284.19 563.905 284.081C563.615 283.972 563.307 283.923 562.998 283.937C561.805 283.937 561.506 284.235 560.81 284.931C557.915 288.188 554.381 290.814 550.427 292.646C546.473 294.477 542.184 295.475 537.828 295.577C520.119 295.577 505.395 285.628 505.395 263.741C505.395 237.476 521.114 228.622 537.231 228.622C548.175 228.622 556.631 233.795 556.333 242.251ZM641.195 272.396V297.765C641.195 297.765 641.195 300.153 644.18 300.153C647.264 300.153 647.264 297.765 647.264 297.765V226.333C647.264 226.333 647.264 224.045 644.28 224.045C641.195 224.045 641.195 226.333 641.195 226.333V266.825H591.452V226.333C591.452 226.333 591.452 224.045 588.467 224.045C585.383 224.045 585.383 226.333 585.383 226.333V297.765C585.383 297.765 585.383 300.153 588.368 300.153C591.452 300.153 591.452 297.765 591.452 297.765V272.396H641.195ZM671.34 224.045C669.45 224.045 669.151 225.637 669.151 227.229V297.865C669.151 299.556 669.848 300.153 671.639 300.153C673.728 300.153 674.822 299.556 674.822 297.765V235.785L726.158 298.064C727.053 299.258 727.55 300.054 729.142 300.054C730.734 300.054 731.132 299.258 731.132 296.671V226.333C731.132 225.14 730.933 224.045 728.446 224.045C725.859 224.045 725.461 225.14 725.461 226.333V288.613L674.325 225.936C672.932 224.145 672.136 223.946 671.34 223.946V224.045ZM789.332 295.577C772.32 295.577 758.093 282.046 758.093 262.248C758.093 242.152 772.021 228.622 789.332 228.622C806.643 228.622 820.571 242.152 820.571 262.248C820.571 282.146 806.344 295.577 789.332 295.577ZM789.332 301.148C794.368 301.18 799.357 300.187 803.996 298.229C808.636 296.272 812.828 293.39 816.319 289.76C819.809 286.13 822.524 281.828 824.298 277.115C826.073 272.403 826.869 267.378 826.64 262.348C826.812 257.307 825.98 252.283 824.191 247.568C822.402 242.852 819.692 238.54 816.219 234.882C812.747 231.225 808.581 228.295 803.965 226.264C799.349 224.232 794.375 223.14 789.332 223.05C784.298 223.14 779.332 224.229 774.723 226.254C770.113 228.28 765.952 231.201 762.481 234.847C759.01 238.494 756.298 242.795 754.503 247.499C752.708 252.202 751.865 257.216 752.024 262.248C752.024 285.429 768.738 301.148 789.332 301.148ZM853.7 294.582V226.333C853.7 226.333 853.7 224.045 850.716 224.045C847.631 224.045 847.632 226.333 847.632 226.333V298.064C847.632 299.357 848.427 300.054 849.621 300.054H892.003C892.003 300.054 894.391 300.054 894.391 297.268C894.391 294.582 892.003 294.582 892.003 294.582H853.7ZM940.453 295.577C923.341 295.577 909.214 282.046 909.214 262.248C909.214 242.152 923.142 228.622 940.453 228.622C957.664 228.622 971.692 242.152 971.692 262.248C971.692 282.146 957.465 295.577 940.453 295.577ZM940.453 301.148C945.489 301.18 950.478 300.187 955.118 298.229C959.757 296.272 963.95 293.39 967.44 289.76C970.93 286.13 973.645 281.828 975.419 277.115C977.194 272.403 977.99 267.378 977.761 262.348C977.933 257.307 977.101 252.283 975.312 247.568C973.523 242.852 970.813 238.54 967.341 234.882C963.868 231.225 959.703 228.295 955.086 226.264C950.47 224.232 945.496 223.14 940.453 223.05C935.411 223.127 930.434 224.207 925.813 226.226C921.192 228.245 917.019 231.164 913.537 234.813C910.056 238.461 907.335 242.766 905.534 247.476C903.733 252.186 902.887 257.208 903.046 262.248C903.046 285.429 919.859 301.148 940.453 301.148ZM1003.73 263.741C1003.73 237.476 1019.45 228.721 1035.56 228.721C1046.51 228.721 1054.96 233.696 1054.66 242.251C1054.66 246.231 1053.67 246.529 1053.67 247.624C1053.67 249.315 1054.96 249.614 1056.36 249.614C1058.54 249.614 1060.63 246.032 1060.63 241.456C1060.63 230.81 1050.29 223.05 1035.56 223.05C1016.56 223.05 997.658 235.088 997.658 263.741C997.658 288.314 1014.27 301.148 1034.67 301.148C1051.18 301.148 1064.22 289.707 1064.22 282.544V267.919C1064.22 266.725 1063.42 265.929 1062.23 265.929H1041.73C1041.73 265.929 1039.34 266.128 1039.34 268.715C1039.34 271.302 1041.73 271.501 1041.73 271.501H1058.15V282.544C1058.15 286.921 1048.2 295.477 1035.07 295.477C1017.75 295.477 1003.73 285.628 1003.73 263.741ZM1091.28 226.333C1091.28 226.333 1091.28 224.045 1088.19 224.045C1085.21 224.045 1085.21 226.333 1085.21 226.333V297.765C1085.21 297.765 1085.21 300.153 1088.19 300.153C1091.18 300.153 1091.18 297.765 1091.18 297.765L1091.28 226.333ZM1119.13 294.582V272.894H1152.66C1152.66 272.894 1155.05 272.695 1155.05 270.108C1155.05 267.521 1152.66 267.322 1152.66 267.322H1119.03V229.716H1158.73C1158.73 229.716 1161.02 229.418 1161.02 226.731C1161.05 226.077 1160.83 225.436 1160.4 224.938C1159.98 224.439 1159.38 224.12 1158.73 224.045H1115.05C1113.86 224.045 1113.06 224.841 1113.06 226.035V298.064C1113.06 299.357 1113.86 300.054 1115.05 300.054H1161.61C1161.61 300.054 1164 299.954 1164 297.367C1164 294.781 1161.61 294.582 1161.61 294.582H1119.13ZM1186.49 282.643C1186.49 277.868 1188.67 277.072 1188.67 275.779C1188.67 274.784 1187.78 274.187 1186.29 274.187C1183.9 274.187 1180.91 276.575 1180.91 282.544C1180.91 295.378 1192.06 301.148 1207.87 301.148C1224.59 301.148 1236.43 292.294 1236.43 278.763C1236.43 264.338 1222.9 260.856 1210.36 256.976C1196.04 252.598 1189.37 250.31 1189.37 240.859C1189.37 232.601 1197.13 228.622 1209.27 228.622C1220.21 228.622 1225.78 233.099 1225.78 238.272C1225.78 241.257 1223.79 242.351 1223.79 244.042C1223.79 245.336 1224.79 245.833 1225.78 245.833C1228.47 245.833 1231.25 242.848 1231.25 238.172C1231.25 230.213 1223.79 223.05 1209.27 223.05C1192.65 223.05 1183.8 231.009 1183.8 242.152C1183.8 256.18 1196.14 258.766 1208.17 262.646C1219.71 266.427 1230.76 268.815 1230.76 279.559C1230.76 289.309 1221.01 295.477 1207.68 295.477C1194.74 295.477 1186.49 291 1186.49 282.544V282.643Z" fill="url(#paint1_linear_101_148)"/>
<mask id="mask0_101_148" style="mask-type:luminance" maskUnits="userSpaceOnUse" x="54" y="54" width="250" height="250">
<path d="M54.4194 54.4196H303.038V303.138H54.4194V54.4196Z" fill="white"/>
</mask>
<g mask="url(#mask0_101_148)">
<mask id="mask1_101_148" style="mask-type:luminance" maskUnits="userSpaceOnUse" x="54" y="54" width="250" height="250">
<path d="M54.4194 54.4196H303.038V303.138H54.4194V54.4196Z" fill="white"/>
</mask>
<g mask="url(#mask1_101_148)">
<path fill-rule="evenodd" clip-rule="evenodd" d="M178.679 303.138C211.661 303.138 243.292 290.036 266.614 266.714C289.936 243.392 303.038 211.761 303.038 178.779C303.038 145.797 289.936 114.165 266.614 90.8435C243.292 67.5216 211.661 54.4196 178.679 54.4196C145.697 54.4196 114.066 67.5216 90.744 90.8435C67.4221 114.165 54.3201 145.797 54.3201 178.779C54.3201 211.761 67.4221 243.392 90.744 266.714C114.066 290.036 145.697 303.138 178.679 303.138ZM131.522 130.229C131.522 129.239 131.915 128.29 132.615 127.591C133.315 126.891 134.263 126.498 135.253 126.498C136.242 126.498 137.191 126.891 137.891 127.591C138.591 128.29 138.984 129.239 138.984 130.229V227.129C138.984 228.119 138.591 229.068 137.891 229.767C137.191 230.467 136.242 230.86 135.253 230.86C134.263 230.86 133.315 230.467 132.615 229.767C131.915 229.068 131.522 228.119 131.522 227.129V130.229ZM114.112 152.514C114.112 151.525 114.505 150.576 115.205 149.876C115.904 149.176 116.853 148.783 117.843 148.783C118.832 148.783 119.781 149.176 120.481 149.876C121.18 150.576 121.573 151.525 121.573 152.514V204.745C121.573 205.734 121.18 206.683 120.481 207.383C119.781 208.083 118.832 208.476 117.843 208.476C116.853 208.476 115.904 208.083 115.205 207.383C114.505 206.683 114.112 205.734 114.112 204.745V152.514ZM152.613 151.32C151.637 151.32 150.701 151.708 150.011 152.398C149.32 153.089 148.932 154.025 148.932 155.001V202.258C148.932 203.247 149.326 204.196 150.025 204.896C150.725 205.595 151.674 205.988 152.663 205.988C153.653 205.988 154.602 205.595 155.301 204.896C156.001 204.196 156.394 203.247 156.394 202.258V155.101C156.394 154.609 156.296 154.122 156.105 153.669C155.913 153.215 155.633 152.805 155.281 152.462C154.928 152.119 154.511 151.85 154.053 151.671C153.595 151.492 153.105 151.307 152.613 151.32ZM166.343 162.463C166.343 161.473 166.736 160.524 167.435 159.825C168.135 159.125 169.084 158.732 170.073 158.732C171.063 158.732 172.012 159.125 172.712 159.825C173.411 160.524 173.804 161.473 173.804 162.463V194.796C173.804 195.786 173.411 196.734 172.712 197.434C172.012 198.134 171.063 198.527 170.073 198.527C169.084 198.527 168.135 198.134 167.435 197.434C166.736 196.734 166.343 195.786 166.343 194.796V162.463ZM187.434 151.32C186.942 151.307 186.453 151.392 185.995 151.571C185.537 151.75 185.119 152.019 184.767 152.362C184.414 152.706 184.134 153.116 183.943 153.569C183.752 154.022 183.653 154.509 183.653 155.001V202.258C183.653 203.247 184.047 204.196 184.746 204.896C185.446 205.595 186.395 205.988 187.384 205.988C188.374 205.988 189.323 205.595 190.022 204.896C190.722 204.196 191.115 203.247 191.115 202.258V155.101C191.115 154.124 190.727 153.188 190.037 152.498C189.347 151.807 188.41 151.32 187.434 151.32ZM201.064 164.95C201.064 163.96 201.457 163.012 202.156 162.312C202.856 161.612 203.805 161.219 204.795 161.219C205.784 161.219 206.733 161.612 207.433 162.312C208.132 163.012 208.525 163.96 208.525 164.95V192.309C208.525 193.298 208.132 194.247 207.433 194.947C206.733 195.647 205.784 196.04 204.795 196.04C203.805 196.04 202.856 195.647 202.156 194.947C201.457 194.247 201.064 193.298 201.064 192.309V164.95ZM222.255 151.32C221.763 151.307 221.273 151.392 220.815 151.571C220.357 151.75 219.94 152.019 219.587 152.362C219.235 152.706 218.955 153.116 218.763 153.569C218.572 154.022 218.474 154.509 218.474 155.001V202.258C218.474 203.247 218.867 204.196 219.567 204.896C220.266 205.595 221.215 205.988 222.205 205.988C223.194 205.988 224.143 205.595 224.843 204.896C225.543 204.196 225.936 203.247 225.936 202.258V155.101C225.936 154.124 225.548 153.188 224.857 152.498C224.167 151.807 223.231 151.32 222.255 151.32ZM235.884 167.437C235.884 166.947 235.981 166.462 236.168 166.009C236.356 165.557 236.631 165.145 236.977 164.799C237.323 164.453 237.735 164.178 238.187 163.99C238.64 163.803 239.125 163.706 239.615 163.706C240.105 163.706 240.59 163.803 241.043 163.99C241.495 164.178 241.907 164.453 242.253 164.799C242.6 165.145 242.874 165.557 243.062 166.009C243.249 166.462 243.346 166.947 243.346 167.437V189.822C243.346 190.811 242.953 191.76 242.253 192.46C241.553 193.159 240.605 193.552 239.615 193.552C238.626 193.552 237.677 193.159 236.977 192.46C236.277 191.76 235.884 190.811 235.884 189.822V167.437ZM257.075 168.73C256.583 168.717 256.094 168.803 255.636 168.982C255.178 169.161 254.76 169.43 254.408 169.773C254.055 170.116 253.775 170.526 253.584 170.979C253.393 171.433 253.294 171.92 253.295 172.411V184.847C253.295 185.837 253.688 186.786 254.387 187.485C255.087 188.185 256.036 188.578 257.025 188.578C258.015 188.578 258.964 188.185 259.663 187.485C260.363 186.786 260.756 185.837 260.756 184.847V172.411C260.756 171.435 260.368 170.499 259.678 169.809C258.988 169.118 258.051 168.73 257.075 168.73ZM96.7016 169.924C96.7016 168.935 97.0947 167.986 97.7943 167.286C98.494 166.587 99.443 166.193 100.432 166.193C101.422 166.193 102.371 166.587 103.07 167.286C103.77 167.986 104.163 168.935 104.163 169.924V187.335C104.163 188.324 103.77 189.273 103.07 189.973C102.371 190.672 101.422 191.065 100.432 191.065C99.443 191.065 98.494 190.672 97.7943 189.973C97.0947 189.273 96.7016 188.324 96.7016 187.335V169.924Z" fill="#7F5AEF"/>
</g>
</g>
<defs>
<linearGradient id="paint0_linear_101_148" x1="386" y1="133" x2="1404.5" y2="133" gradientUnits="userSpaceOnUse">
<stop stop-color="#7F5AEF"/>
<stop offset="1" stop-color="white"/>
</linearGradient>
<linearGradient id="paint1_linear_101_148" x1="392" y1="262" x2="1468.5" y2="262" gradientUnits="userSpaceOnUse">
<stop stop-color="#7F5AEF"/>
<stop offset="1" stop-color="white"/>
</linearGradient>
</defs>
</svg>
