<?xml version="1.0" encoding="UTF-8" standalone="no"?>
<!DOCTYPE svg PUBLIC "-//W3C//DTD SVG 1.1//EN" "http://www.w3.org/Graphics/SVG/1.1/DTD/svg11.dtd">
<!-- Created with Vectornator (http://vectornator.io/) -->
<svg height="100%" stroke-miterlimit="10" style="fill-rule:nonzero;clip-rule:evenodd;stroke-linecap:round;stroke-linejoin:round;" version="1.1" viewBox="0 0 1024 1024" width="100%" xml:space="preserve" xmlns="http://www.w3.org/2000/svg" xmlns:vectornator="http://vectornator.io" xmlns:xlink="http://www.w3.org/1999/xlink">
<defs/>
<g id="Layer-1" vectornator:layerName="Layer 1">
<g opacity="1">
<path d="M414.83 359.696L435.058 359.696C439.115 359.696 442.404 363.058 442.404 367.206L442.404 646.54C442.404 650.687 439.115 654.05 435.058 654.05L414.83 654.05C410.773 654.05 407.484 650.687 407.484 646.54L407.484 367.206C407.484 363.058 410.773 359.696 414.83 359.696Z" fill="#7f5aef" fill-rule="nonzero" opacity="1" stroke="none"/>
<path d="M578.112 178.018C483.872 178.018 407.486 250.813 407.486 340.612C407.486 343.248 409.738 345.393 412.504 345.393C418.682 345.393 431.019 345.393 437.197 345.393C439.963 345.393 442.215 343.248 442.215 340.612C442.215 269.09 503.053 211.112 578.112 211.112C653.167 211.112 714.009 269.085 714.009 340.612C714.009 343.248 716.261 345.393 719.027 345.393C725.205 345.393 737.575 345.393 743.753 345.393C746.519 345.393 748.738 343.248 748.738 340.612C748.738 250.809 672.348 178.018 578.112 178.018Z" fill="#7f5aef" fill-rule="nonzero" opacity="1" stroke="none"/>
<path d="M329.858 422.147C306.513 422.147 287.603 436.346 287.603 453.854L287.603 622.36C287.603 639.868 306.513 654.05 329.858 654.05L398.933 654.05C422.278 654.05 441.188 639.868 441.188 622.36L441.188 453.854C441.188 436.346 422.278 422.147 398.933 422.147L329.858 422.147ZM347.382 458.683L381.409 458.683C390.936 458.683 398.654 466.428 398.654 475.992L398.654 600.205C398.654 609.768 390.936 617.514 381.409 617.514L347.382 617.514C337.855 617.514 330.137 609.768 330.136 600.205L330.136 475.992C330.136 466.428 337.855 458.683 347.382 458.683Z" fill="#7f5aef" fill-rule="nonzero" opacity="1" stroke="none"/>
<path d="M721.989 422.15L742.222 422.15C746.279 422.15 749.567 425.284 749.567 429.15L749.567 647.05C749.567 650.916 746.279 654.05 742.222 654.05L721.989 654.05C717.932 654.05 714.643 650.916 714.643 647.05L714.643 429.15C714.643 425.284 717.932 422.15 721.989 422.15Z" fill="#7f5aef" fill-rule="nonzero" opacity="1" stroke="none"/>
<path d="M728.242 362.123L735.968 362.123C743.479 362.123 749.567 368.212 749.567 375.722L749.567 391.875C749.567 399.386 743.479 405.474 735.968 405.474L728.242 405.474C720.732 405.474 714.643 399.386 714.643 391.875L714.643 375.722C714.643 368.212 720.732 362.123 728.242 362.123Z" fill="#7f5aef" fill-rule="nonzero" opacity="1" stroke="none"/>
<path d="M790.707 422.147C772.335 422.147 757.452 436.346 757.452 453.854L757.452 622.36C757.452 639.868 772.335 654.05 790.707 654.05L845.071 654.05C863.444 654.05 878.327 639.868 878.327 622.36L878.327 453.854C878.327 436.346 863.444 422.147 845.071 422.147L790.707 422.147ZM804.5 458.683L831.279 458.683C838.777 458.683 844.852 466.428 844.852 475.992L844.852 600.205C844.852 609.768 838.777 617.514 831.279 617.514L804.5 617.514C797.001 617.514 790.927 609.768 790.927 600.205L790.927 475.992C790.927 466.428 797.001 458.683 804.5 458.683Z" fill="#7f5aef" fill-rule="nonzero" opacity="1" stroke="none"/>
<g opacity="1">
<path d="M485.512 511.374L485.512 511.374C487.48 511.374 489.076 512.069 489.076 512.927L489.076 555.108C489.076 555.965 487.48 556.661 485.512 556.661L485.512 556.661C483.543 556.661 481.947 555.965 481.947 555.108L481.947 512.927C481.947 512.069 483.543 511.374 485.512 511.374Z" fill="#7f5aef" fill-rule="nonzero" opacity="1" stroke="none"/>
<path d="M666.765 515.153L666.765 515.153C668.733 515.153 670.329 515.732 670.329 516.447L670.329 551.588C670.329 552.302 668.733 552.882 666.765 552.882L666.765 552.882C664.796 552.882 663.2 552.302 663.2 551.588L663.2 516.447C663.2 515.732 664.796 515.153 666.765 515.153Z" fill="#7f5aef" fill-rule="nonzero" opacity="1" stroke="none"/>
<path d="M684.71 522.696L684.71 522.696C686.679 522.696 688.275 523.043 688.275 523.472L688.275 544.563C688.275 544.991 686.679 545.339 684.71 545.339L684.71 545.339C682.742 545.339 681.146 544.991 681.146 544.563L681.146 523.472C681.146 523.043 682.742 522.696 684.71 522.696Z" fill="#7f5aef" fill-rule="nonzero" opacity="1" stroke="none"/>
<path d="M471.514 522.696L471.514 522.696C473.482 522.696 475.078 523.043 475.078 523.472L475.078 544.563C475.078 544.991 473.482 545.339 471.514 545.339L471.514 545.339C469.545 545.339 467.95 544.991 467.95 544.563L467.95 523.472C467.95 523.043 469.545 522.696 471.514 522.696Z" fill="#7f5aef" fill-rule="nonzero" opacity="1" stroke="none"/>
<path d="M502.74 500.052L502.74 500.052C504.708 500.052 506.304 501.095 506.304 502.382L506.304 565.653C506.304 566.939 504.708 567.982 502.74 567.982L502.74 567.982C500.771 567.982 499.175 566.939 499.175 565.653L499.175 502.382C499.175 501.095 500.771 500.052 502.74 500.052Z" fill="#7f5aef" fill-rule="nonzero" opacity="1" stroke="none"/>
<path d="M647.383 509.11L647.383 509.11C649.352 509.11 650.947 509.874 650.947 510.818L650.947 557.217C650.947 558.16 649.352 558.925 647.383 558.925L647.383 558.925C645.415 558.925 643.819 558.16 643.819 557.217L643.819 510.818C643.819 509.874 645.415 509.11 647.383 509.11Z" fill="#7f5aef" fill-rule="nonzero" opacity="1" stroke="none"/>
<path d="M521.403 466.087L521.403 466.087C523.372 466.087 524.968 468.173 524.968 470.746L524.968 597.289C524.968 599.862 523.372 601.948 521.403 601.948L521.403 601.948C519.435 601.948 517.839 599.862 517.839 597.289L517.839 470.746C517.839 468.173 519.435 466.087 521.403 466.087Z" fill="#7f5aef" fill-rule="nonzero" opacity="1" stroke="none"/>
<path d="M539.708 484.492L539.708 484.492C541.677 484.492 543.272 486.012 543.272 487.888L543.272 580.146C543.272 582.022 541.677 583.543 539.708 583.543L539.708 583.543C537.74 583.543 536.144 582.022 536.144 580.146L536.144 487.888C536.144 486.012 537.74 484.492 539.708 484.492Z" fill="#7f5aef" fill-rule="nonzero" opacity="1" stroke="none"/>
<path d="M556.577 500.062L556.577 500.062C558.546 500.062 560.141 501.104 560.141 502.39L560.141 565.644C560.141 566.93 558.546 567.973 556.577 567.973L556.577 567.973C554.609 567.973 553.013 566.93 553.013 565.644L553.013 502.39C553.013 501.104 554.609 500.062 556.577 500.062Z" fill="#7f5aef" fill-rule="nonzero" opacity="1" stroke="none"/>
<path d="M590.315 500.062L590.315 500.062C592.284 500.062 593.88 501.104 593.88 502.39L593.88 565.644C593.88 566.93 592.284 567.973 590.315 567.973L590.315 567.973C588.347 567.973 586.751 566.93 586.751 565.644L586.751 502.39C586.751 501.104 588.347 500.062 590.315 500.062Z" fill="#7f5aef" fill-rule="nonzero" opacity="1" stroke="none"/>
<path d="M628.002 500.062L628.002 500.062C629.97 500.062 631.566 501.104 631.566 502.39L631.566 565.644C631.566 566.93 629.97 567.973 628.002 567.973L628.002 567.973C626.033 567.973 624.437 566.93 624.437 565.644L624.437 502.39C624.437 501.104 626.033 500.062 628.002 500.062Z" fill="#7f5aef" fill-rule="nonzero" opacity="1" stroke="none"/>
<path d="M573.087 492.759L573.087 492.759C575.056 492.759 576.652 494.026 576.652 495.589L576.652 572.446C576.652 574.009 575.056 575.275 573.087 575.275L573.087 575.275C571.119 575.275 569.523 574.009 569.523 572.446L569.523 495.589C569.523 494.026 571.119 492.759 573.087 492.759Z" fill="#7f5aef" fill-rule="nonzero" opacity="1" stroke="none"/>
<path d="M609.338 492.759L609.338 492.759C611.306 492.759 612.902 494.026 612.902 495.589L612.902 572.446C612.902 574.009 611.306 575.275 609.338 575.275L609.338 575.275C607.369 575.275 605.774 574.009 605.774 572.446L605.774 495.589C605.774 494.026 607.369 492.759 609.338 492.759Z" fill="#7f5aef" fill-rule="nonzero" opacity="1" stroke="none"/>
</g>
</g>
<g opacity="1">
<g opacity="1">
<path d="M33.2528 422.143C14.8802 422.143 2.66876e-06 436.323 3.90799e-14 453.831L3.90799e-14 622.331C-1.19089e-05 639.839 14.8801 654.05 33.2528 654.05C33.2528 654.05 33.4824 601.896 33.4824 600.206L33.4824 475.987C33.4824 466.424 39.5609 458.675 47.059 458.675L73.8187 458.675C81.3168 458.675 87.3953 466.424 87.3953 475.987L87.3953 600.206C87.3953 601.953 87.6249 654.05 87.6249 654.05C105.998 654.05 120.878 639.839 120.878 622.331L120.878 453.831C120.878 436.323 105.998 422.143 87.6249 422.143L33.2528 422.143Z" fill="#dddddd" fill-rule="nonzero" opacity="1" stroke="none"/>
<path d="M9.27579 550.5L9.31267 531.22C9.32006 527.354 10.7443 524.222 12.4937 524.225L111.098 524.396C112.848 524.399 114.26 527.536 114.252 531.402L114.216 550.682C114.208 554.548 112.784 557.679 111.035 557.676L12.4301 557.505C10.6806 557.502 9.2684 554.366 9.27579 550.5Z" fill="#dddddd" fill-rule="nonzero" opacity="1" stroke="none"/>
</g>
<path d="M175.549 654.05C157.176 654.05 142.296 639.87 142.296 622.362L142.296 476.112L142.329 476.112L142.329 429.675C142.329 425.518 145.87 422.143 150.232 422.143L167.908 422.143C172.269 422.144 175.811 425.518 175.811 429.675L175.811 543.893C175.811 543.949 175.779 543.995 175.778 544.05L175.778 600.206C175.778 609.769 181.857 617.519 189.355 617.518L216.147 617.518C223.645 617.518 229.691 609.769 229.691 600.206L229.691 543.893L229.691 476.112L229.691 429.675C229.691 425.518 233.233 422.143 237.594 422.143L255.27 422.143C259.632 422.144 263.173 425.518 263.173 429.675L263.173 476.112L263.173 543.893L263.173 622.362C263.173 639.87 248.293 654.05 229.921 654.05L175.549 654.05Z" fill="#dddddd" fill-rule="nonzero" opacity="1" stroke="none"/>
<g opacity="1">
<path d="M936.375 422.143C918.002 422.143 903.122 436.323 903.122 453.831L903.122 622.331C903.122 639.839 918.002 654.05 936.375 654.05C936.375 654.05 936.605 601.896 936.605 600.206L936.605 475.987C936.605 466.424 942.683 458.675 950.181 458.675L976.941 458.675C984.439 458.675 990.518 466.424 990.518 475.987L990.518 600.206C990.518 601.953 990.747 654.05 990.747 654.05C1009.12 654.05 1024 639.839 1024 622.331L1024 453.831C1024 436.323 1009.12 422.143 990.747 422.143L936.375 422.143Z" fill="#dddddd" fill-rule="nonzero" opacity="1" stroke="none"/>
<g fill="#dddddd" opacity="1" stroke="none">
<path d="M27.2547 714.028L3.58577 714.028L3.58577 704.685L60.8895 704.685L60.8895 714.028L37.2205 714.028L37.2205 778.183L27.2547 778.183L27.2547 714.028Z"/>
<path d="M88.6502 704.685L136.092 704.685L136.092 714.028L98.6161 714.028L98.6161 735.932L133.497 735.932L133.497 745.275L98.6161 745.275L98.6161 768.84L137.96 768.84L137.96 778.183L88.6502 778.183L88.6502 704.685Z"/>
<path d="M220.43 720.568C218.353 717.869 215.724 715.793 212.54 714.34C209.356 712.886 206.069 712.16 202.678 712.16C198.525 712.16 194.771 712.938 191.414 714.495C188.058 716.052 185.186 718.181 182.798 720.88C180.41 723.579 178.559 726.745 177.244 730.378C175.929 734.012 175.272 737.905 175.272 742.057C175.272 745.933 175.895 749.601 177.14 753.061C178.386 756.521 180.186 759.567 182.539 762.196C184.892 764.826 187.764 766.903 191.155 768.425C194.546 769.948 198.387 770.709 202.678 770.709C206.9 770.709 210.602 769.844 213.786 768.114C216.969 766.384 219.668 763.961 221.883 760.847L230.292 767.179C229.738 767.941 228.769 769.031 227.385 770.449C226.001 771.868 224.167 773.287 221.883 774.706C219.599 776.124 216.848 777.37 213.63 778.443C210.412 779.516 206.692 780.052 202.47 780.052C196.657 780.052 191.414 778.945 186.743 776.73C182.071 774.515 178.092 771.609 174.805 768.01C171.517 764.411 169.009 760.345 167.278 755.812C165.548 751.279 164.683 746.694 164.683 742.057C164.683 736.382 165.617 731.14 167.486 726.33C169.355 721.52 171.967 717.367 175.324 713.872C178.68 710.377 182.712 707.661 187.418 705.723C192.124 703.785 197.314 702.817 202.989 702.817C207.834 702.817 212.592 703.751 217.263 705.619C221.935 707.488 225.759 710.36 228.735 714.236L220.43 720.568Z"/>
<path d="M259.506 704.685L269.472 704.685L269.472 735.206L307.57 735.206L307.57 704.685L317.536 704.685L317.536 778.183L307.57 778.183L307.57 744.549L269.472 744.549L269.472 778.183L259.506 778.183L259.506 704.685Z"/>
<path d="M353.602 704.685L366.682 704.685L407.168 765.103L407.376 765.103L407.376 704.685L417.342 704.685L417.342 778.183L404.677 778.183L363.775 717.765L363.568 717.765L363.568 778.183L353.602 778.183L353.602 704.685Z"/>
<path d="M487.146 780.052C481.54 780.052 476.384 779.066 471.678 777.093C466.972 775.121 462.941 772.405 459.584 768.944C456.228 765.484 453.598 761.401 451.694 756.694C449.791 751.988 448.84 746.902 448.84 741.434C448.84 735.967 449.791 730.88 451.694 726.174C453.598 721.468 456.228 717.385 459.584 713.924C462.941 710.464 466.972 707.748 471.678 705.775C476.384 703.803 481.54 702.817 487.146 702.817C492.752 702.817 497.908 703.803 502.614 705.775C507.32 707.748 511.351 710.464 514.708 713.924C518.064 717.385 520.694 721.468 522.597 726.174C524.501 730.88 525.452 735.967 525.452 741.434C525.452 746.902 524.501 751.988 522.597 756.694C520.694 761.401 518.064 765.484 514.708 768.944C511.351 772.405 507.32 775.121 502.614 777.093C497.908 779.066 492.752 780.052 487.146 780.052ZM487.146 770.709C491.368 770.709 495.174 769.93 498.565 768.373C501.956 766.816 504.863 764.723 507.285 762.093C509.708 759.463 511.576 756.366 512.891 752.802C514.206 749.237 514.864 745.448 514.864 741.434C514.864 737.42 514.206 733.631 512.891 730.067C511.576 726.503 509.708 723.406 507.285 720.776C504.863 718.146 501.956 716.052 498.565 714.495C495.174 712.938 491.368 712.16 487.146 712.16C482.924 712.16 479.118 712.938 475.727 714.495C472.336 716.052 469.429 718.146 467.007 720.776C464.584 723.406 462.716 726.503 461.401 730.067C460.086 733.631 459.428 737.42 459.428 741.434C459.428 745.448 460.086 749.237 461.401 752.802C462.716 756.366 464.584 759.463 467.007 762.093C469.429 764.723 472.336 766.816 475.727 768.373C479.118 769.93 482.924 770.709 487.146 770.709Z"/>
<path d="M556.95 704.685L566.916 704.685L566.916 768.84L600.655 768.84L600.655 778.183L556.95 778.183L556.95 704.685Z"/>
<path d="M661.739 780.052C656.133 780.052 650.977 779.066 646.271 777.093C641.565 775.121 637.533 772.405 634.177 768.944C630.82 765.484 628.19 761.401 626.287 756.694C624.384 751.988 623.432 746.902 623.432 741.434C623.432 735.967 624.384 730.88 626.287 726.174C628.19 721.468 630.82 717.385 634.177 713.924C637.533 710.464 641.565 707.748 646.271 705.775C650.977 703.803 656.133 702.817 661.739 702.817C667.345 702.817 672.5 703.803 677.207 705.775C681.913 707.748 685.944 710.464 689.301 713.924C692.657 717.385 695.287 721.468 697.19 726.174C699.093 730.88 700.045 735.967 700.045 741.434C700.045 746.902 699.093 751.988 697.19 756.694C695.287 761.401 692.657 765.484 689.301 768.944C685.944 772.405 681.913 775.121 677.207 777.093C672.5 779.066 667.345 780.052 661.739 780.052ZM661.739 770.709C665.96 770.709 669.767 769.93 673.158 768.373C676.549 766.816 679.456 764.723 681.878 762.093C684.3 759.463 686.169 756.366 687.484 752.802C688.799 749.237 689.456 745.448 689.456 741.434C689.456 737.42 688.799 733.631 687.484 730.067C686.169 726.503 684.3 723.406 681.878 720.776C679.456 718.146 676.549 716.052 673.158 714.495C669.767 712.938 665.96 712.16 661.739 712.16C657.517 712.16 653.711 712.938 650.32 714.495C646.928 716.052 644.022 718.146 641.599 720.776C639.177 723.406 637.309 726.503 635.994 730.067C634.679 733.631 634.021 737.42 634.021 741.434C634.021 745.448 634.679 749.237 635.994 752.802C637.309 756.366 639.177 759.463 641.599 762.093C644.022 764.723 646.928 766.816 650.32 768.373C653.711 769.93 657.517 770.709 661.739 770.709Z"/>
<path d="M794.141 737.074L794.141 773.304C792.342 774.412 790.3 775.38 788.016 776.211C785.732 777.041 783.362 777.751 780.905 778.339C778.448 778.927 775.957 779.36 773.431 779.637C770.905 779.914 768.534 780.052 766.32 780.052C760.091 780.052 754.537 779.014 749.658 776.938C744.779 774.861 740.661 772.059 737.304 768.529C733.948 764.999 731.387 760.899 729.622 756.227C727.858 751.556 726.975 746.625 726.975 741.434C726.975 735.967 727.927 730.88 729.83 726.174C731.733 721.468 734.363 717.385 737.72 713.924C741.076 710.464 745.108 707.748 749.814 705.775C754.52 703.803 759.676 702.817 765.282 702.817C772.064 702.817 777.6 703.664 781.891 705.36C786.182 707.056 789.781 709.391 792.688 712.367L785.629 719.945C782.583 717.039 779.365 715.014 775.974 713.872C772.583 712.731 769.019 712.16 765.282 712.16C761.06 712.16 757.253 712.938 753.862 714.495C750.471 716.052 747.564 718.146 745.142 720.776C742.72 723.406 740.851 726.503 739.536 730.067C738.221 733.631 737.564 737.42 737.564 741.434C737.564 745.587 738.291 749.445 739.744 753.009C741.197 756.573 743.204 759.67 745.765 762.3C748.326 764.93 751.336 766.989 754.797 768.477C758.257 769.965 762.029 770.709 766.112 770.709C769.642 770.709 772.981 770.38 776.13 769.723C779.279 769.065 781.961 768.114 784.175 766.868L784.175 746.417L767.877 746.417L767.877 737.074L794.141 737.074Z"/>
<path d="M829.48 704.685L839.446 704.685L839.446 778.183L829.48 778.183L829.48 704.685Z"/>
<path d="M875.511 704.685L922.953 704.685L922.953 714.028L885.477 714.028L885.477 735.932L920.358 735.932L920.358 745.275L885.477 745.275L885.477 768.84L924.822 768.84L924.822 778.183L875.511 778.183L875.511 704.685Z"/>
<path d="M958.292 762.819C960.091 765.518 962.393 767.508 965.195 768.788C967.998 770.069 970.888 770.709 973.864 770.709C975.525 770.709 977.22 770.449 978.95 769.93C980.681 769.411 982.255 768.633 983.674 767.595C985.093 766.557 986.252 765.276 987.152 763.754C988.051 762.231 988.501 760.466 988.501 758.459C988.501 755.622 987.601 753.459 985.802 751.971C984.003 750.483 981.771 749.237 979.106 748.234C976.442 747.23 973.535 746.261 970.386 745.327C967.237 744.393 964.33 743.095 961.666 741.434C959.001 739.773 956.769 737.541 954.97 734.738C953.171 731.936 952.271 728.146 952.271 723.371C952.271 721.226 952.738 718.942 953.672 716.52C954.607 714.097 956.077 711.883 958.084 709.876C960.091 707.869 962.669 706.19 965.818 704.841C968.967 703.491 972.756 702.817 977.186 702.817C981.2 702.817 985.041 703.37 988.709 704.478C992.377 705.585 995.595 707.834 998.363 711.225L990.266 718.596C989.02 716.658 987.255 715.101 984.971 713.924C982.688 712.748 980.092 712.16 977.186 712.16C974.417 712.16 972.116 712.523 970.282 713.25C968.448 713.976 966.978 714.911 965.87 716.052C964.763 717.194 963.984 718.423 963.534 719.738C963.085 721.053 962.86 722.264 962.86 723.371C962.86 726.485 963.759 728.873 965.559 730.534C967.358 732.195 969.59 733.545 972.255 734.583C974.919 735.621 977.826 736.555 980.975 737.386C984.124 738.216 987.03 739.375 989.695 740.863C992.359 742.351 994.591 744.358 996.391 746.884C998.19 749.41 999.09 752.888 999.09 757.317C999.09 760.847 998.415 764.03 997.065 766.868C995.716 769.705 993.899 772.093 991.615 774.031C989.332 775.969 986.632 777.457 983.518 778.495C980.404 779.533 977.082 780.052 973.552 780.052C968.846 780.052 964.382 779.221 960.161 777.561C955.939 775.9 952.582 773.339 950.091 769.878L958.292 762.819Z"/>
</g>
</g>
</g>
</g>
</svg>
