<svg width="189" height="189" viewBox="0 0 189 189" fill="none" xmlns="http://www.w3.org/2000/svg">
<circle cx="94.208" cy="94.208" r="94.208" fill="black"/>
<path fill-rule="evenodd" clip-rule="evenodd" d="M93.4444 37C77.1828 37 64 50.1828 64 66.4444C64 82.7061 77.1828 95.8888 93.4444 95.8888C109.706 95.8888 122.889 82.7061 122.889 66.4444V42.5556C122.889 39.4873 120.402 37 117.333 37H93.4444ZM93.4447 44.7778C81.4785 44.7778 71.778 54.4782 71.778 66.4445C71.778 78.4107 81.4785 88.1111 93.4447 88.1111C105.411 88.1111 115.111 78.4107 115.111 66.4445C115.111 54.4782 105.411 44.7778 93.4447 44.7778Z" fill="#7F5AEF"/>
<path d="M65.1108 107.253C65.1108 106.5 65.7218 105.889 66.4754 105.889H101.777C114.05 105.889 124 115.838 124 128.111C124 140.384 114.05 150.333 101.777 150.333H66.4754C65.7218 150.333 65.1108 149.722 65.1108 148.969C65.1108 145.427 67.9821 142.555 71.5241 142.555H100.99C108.967 142.555 115.434 136.088 115.434 128.111C115.434 120.134 108.967 113.667 100.99 113.667H71.5241C67.9821 113.667 65.1108 110.795 65.1108 107.253Z" fill="#7F5AEF"/>
</svg>
